<?xml version="1.0" encoding="iso-8859-1"?>
<!-- Generator: Adobe Illustrator 19.0.0, SVG Export Plug-In . SVG Version: 6.00 Build 0)  -->
<svg version="1.1" id="Capa_1" xmlns="http://www.w3.org/2000/svg" xmlns:xlink="http://www.w3.org/1999/xlink" x="0px" y="0px"
	 viewBox="0 0 512 512" style="enable-background:new 0 0 512 512;" xml:space="preserve">
<path style="fill:#FF9F00;" d="M256,512c-68.113,0-132.326-26.702-180.812-75.188C26.702,388.327,0,324.113,0,256
	S26.702,123.673,75.188,75.188C123.674,26.702,187.887,0,256,0s132.327,26.702,180.813,75.188C485.298,123.673,512,187.887,512,256
	s-26.702,132.327-75.188,180.812C388.327,485.298,324.113,512,256,512z"/>
<path style="fill:#FF7816;" d="M256,0v512c68.113,0,132.327-26.702,180.813-75.188C485.298,388.327,512,324.113,512,256
	s-26.702-132.327-75.188-180.812C388.327,26.702,324.113,0,256,0z"/>
<path style="fill:#384949;" d="M211,181h-30c0-16.542-13.458-30-30-30s-30,13.458-30,30H91c0-33.084,26.916-60,60-60
	S211,147.916,211,181z"/>
<path style="fill:#293939;" d="M421,181h-30c0-16.542-13.458-30-30-30s-30,13.458-30,30h-30c0-33.084,26.916-60,60-60
	S421,147.916,421,181z"/>
<path style="fill:#E7E7E7;" d="M256,391c-74.439,0-135-60.561-135-135v-15h270v15C391,330.439,330.439,391,256,391z"/>
<path style="fill:#D3D3D8;" d="M256,391c74.439,0,135-60.561,135-135v-15H256V391z"/>
<g>
</g>
<g>
</g>
<g>
</g>
<g>
</g>
<g>
</g>
<g>
</g>
<g>
</g>
<g>
</g>
<g>
</g>
<g>
</g>
<g>
</g>
<g>
</g>
<g>
</g>
<g>
</g>
<g>
</g>
</svg>
