<?xml version="1.0" encoding="iso-8859-1"?>
<!-- Generator: Adobe Illustrator 19.0.0, SVG Export Plug-In . SVG Version: 6.00 Build 0)  -->
<svg version="1.1" id="Capa_1" xmlns="http://www.w3.org/2000/svg" xmlns:xlink="http://www.w3.org/1999/xlink" x="0px" y="0px"
	 viewBox="0 0 486.6 486.6" style="enable-background:new 0 0 486.6 486.6;" xml:space="preserve">
<path style="fill:#ED664C;" d="M372.9,257.6l-35.8,61.1c-9.5,16.3-6.9,37,6.4,50.3c8.1,8.1,18.7,12.2,29.3,12.2
	c10.6,0,21.3-4,29.3-12.2c13.3-13.3,16-34,6.4-50.3L372.9,257.6z M352.2,253.7c28.6,0,51.8-23.2,51.8-51.8s-23.2-51.8-51.8-51.8
	s-51.9,23.1-51.9,51.7S323.5,253.7,352.2,253.7z M243.3,10c128.8,0,233.3,104.5,233.3,233.3S372.1,476.6,243.3,476.6
	S10,372.1,10,243.3S114.5,10,243.3,10z M186.3,201.8c0-28.6-23.2-51.8-51.8-51.8s-51.8,23.2-51.8,51.8s23.2,51.8,51.8,51.8
	S186.3,230.4,186.3,201.8z"/>
<path style="fill:#FDC75B;" d="M408.7,318.6c9.5,16.3,6.9,37-6.4,50.3c-8.1,8.1-18.7,12.2-29.3,12.2s-21.3-4-29.3-12.2
	c-13.3-13.3-16-34-6.4-50.3l35.8-61.1L408.7,318.6z"/>
<g>
	<circle style="fill:#FFFFFF;" cx="362.5" cy="186.3" r="20.7"/>
	<circle style="fill:#FFFFFF;" cx="326.2" cy="222.6" r="10.4"/>
	<circle style="fill:#FFFFFF;" cx="144.8" cy="186.3" r="20.7"/>
	<circle style="fill:#FFFFFF;" cx="108.5" cy="222.6" r="10.4"/>
</g>
<path d="M352.2,253.7c4.2,0,8.3-0.5,12.3-1.5l-36,61.4c-11.8,20.2-8.6,45.9,8,62.4c9.7,9.8,22.6,15.1,36.4,15.1s26.7-5.4,36.4-15.1
	c16.5-16.5,19.8-42.2,8-62.4l-39.2-66.9c15.5-9,25.9-25.7,25.9-44.9c0-28.6-23.2-51.8-51.8-51.8s-51.8,23.2-51.8,51.8
	C300.3,230.4,323.5,253.7,352.2,253.7z M400,323.7c7.2,12.4,5.2,28-4.9,38.2c-5.9,6-13.8,9.2-22.2,9.2s-16.3-3.3-22.2-9.2l0,0
	c-10.1-10.1-12.1-25.8-4.9-38.2l27.1-46.3L400,323.7z M362.5,165.5c11.5,0,20.7,9.3,20.7,20.7s-9.3,20.7-20.7,20.7
	s-20.7-9.3-20.7-20.7S351.1,165.5,362.5,165.5z M326.2,212.2c5.7,0,10.4,4.7,10.4,10.4s-4.7,10.4-10.4,10.4
	c-5.7,0-10.4-4.7-10.4-10.4S320.5,212.2,326.2,212.2z"/>
<path d="M134.4,253.7c28.6,0,51.8-23.2,51.8-51.8s-23.2-51.8-51.8-51.8s-51.8,23.2-51.8,51.8C82.6,230.4,105.8,253.7,134.4,253.7z
	 M144.8,165.5c11.5,0,20.7,9.3,20.7,20.7s-9.3,20.7-20.7,20.7s-20.7-9.3-20.7-20.7S133.3,165.5,144.8,165.5z M108.5,212.2
	c5.7,0,10.4,4.7,10.4,10.4s-4.7,10.4-10.4,10.4c-5.7,0-10.4-4.7-10.4-10.4S102.8,212.2,108.5,212.2z"/>
<path d="M243.3,486.6c65,0,126.1-25.3,172-71.3c46-46,71.3-107,71.3-172s-25.3-126.1-71.3-172c-46-46-107-71.3-172-71.3
	s-126.1,25.3-172,71.3c-46,46-71.3,107-71.3,172s25.3,126.1,71.3,172C117.2,461.3,178.3,486.6,243.3,486.6z M243.3,20
	c123.1,0,223.3,100.2,223.3,223.3S366.4,466.6,243.3,466.6S20,366.4,20,243.3S120.2,20,243.3,20z"/>
<path d="M130.2,132.9l-1.7-19.9c-17.7,1.5-33.7,10.8-43.8,25.4l16.5,11.4C107.9,140,118.5,133.9,130.2,132.9z"/>
<path d="M385.4,149.8l16.5-11.4c-10.1-14.7-26.1-23.9-43.8-25.4l-1.7,19.9C368.1,133.9,378.7,140,385.4,149.8z"/>
<path d="M221.7,351.8c1.2,0,1.3,0,3.8,2.4c3.1,3,8.3,8,17.7,8s14.6-5,17.8-8c2.5-2.4,2.7-2.4,3.9-2.4c1.2,0,1.3,0,3.8,2.4
	c3.1,3,8.7,8,17.7,8v-20c-1,0-1.3,0-3.8-2.4c-3.1-3-8.2-8-17.6-8c-9.4,0-14.6,5-17.7,8c-2.5,2.4-2.7,2.4-3.9,2.4
	c-1.2,0-1.4,0-3.9-2.4c-3.1-3-8.3-8-17.7-8s-14.5,5-17.6,8c-2.5,2.4-2.8,2.4-3.8,2.4v20c9,0,14.5-5,17.6-8
	C220.4,351.8,220.6,351.8,221.7,351.8z"/>
<g>
</g>
<g>
</g>
<g>
</g>
<g>
</g>
<g>
</g>
<g>
</g>
<g>
</g>
<g>
</g>
<g>
</g>
<g>
</g>
<g>
</g>
<g>
</g>
<g>
</g>
<g>
</g>
<g>
</g>
</svg>
